<svg width="1960" height="746" viewBox="0 0 1960 746" fill="none" xmlns="http://www.w3.org/2000/svg">
<g clip-path="url(#clip0)">
<mask id="mask0" mask-type="alpha" maskUnits="userSpaceOnUse" x="-28" y="0" width="2015" height="1270">
<rect x="1987" width="1270" height="2015" transform="rotate(90 1987 0)" fill="#DFFCFF"/>
</mask>
<g mask="url(#mask0)">
<rect x="1987" width="1270" height="2015" transform="rotate(90 1987 0)" fill="#004B5D"/>
<g style="mix-blend-mode:lighten">
<path d="M44.1244 600.552C-47.7631 600.552 -122.251 526.069 -122.251 434.192C-122.251 342.315 -47.7631 267.832 44.1244 267.832C136.012 267.832 210.5 342.315 210.5 434.192C210.5 526.069 136.012 600.552 44.1244 600.552Z" stroke="#00C4F5" stroke-width="17"/>
</g>
<g style="mix-blend-mode:lighten">
<path d="M314.741 1040.43C335.767 1062.93 324.554 1099.75 294.557 1106.71L-386.854 1264.81C-416.849 1271.77 -443.129 1243.65 -434.159 1214.2L-230.389 545.08C-221.419 515.624 -183.925 506.923 -162.9 529.418L314.741 1040.43Z" fill="#00C4F5"/>
</g>
<g style="mix-blend-mode:lighten">
<path d="M790.206 219.356C799.342 226.12 812.148 218.728 810.858 207.434L796.883 85.1079C795.821 75.8079 785.573 70.6446 777.467 75.3247L692.481 124.387C684.374 129.067 683.723 140.522 691.246 146.092L790.206 219.356Z" stroke="#6BDAF5" stroke-width="12"/>
<path d="M992.101 120.339C1001.24 127.104 1014.04 119.711 1012.75 108.417L998.779 -13.9087C997.716 -23.2087 987.469 -28.372 979.362 -23.6919L894.377 25.37C886.27 30.0501 885.618 41.5056 893.142 47.0756L992.101 120.339Z" stroke="#6BDAF5" stroke-width="12"/>
<path d="M1148.39 106.372C1157.53 113.136 1170.33 105.743 1169.04 94.4493L1155.07 -27.8764C1154.01 -37.1765 1143.76 -42.3397 1135.65 -37.6596L1050.67 11.4022C1042.56 16.0823 1041.91 27.5378 1049.43 33.1078L1148.39 106.372Z" stroke="#6BDAF5" stroke-width="12"/>
<path d="M836.853 52.818C845.99 59.5821 858.795 52.1894 857.505 40.8956L843.531 -81.4301C842.468 -90.7302 832.221 -95.8934 824.114 -91.2133L739.129 -42.1515C731.022 -37.4714 730.37 -26.0159 737.894 -20.4459L836.853 52.818Z" stroke="#6BDAF5" stroke-width="12"/>
<path d="M943.979 269.251C953.115 276.015 965.921 268.622 964.631 257.328L950.656 135.002C949.594 125.702 939.346 120.539 931.239 125.219L846.254 174.281C838.147 178.961 837.496 190.417 845.019 195.987L943.979 269.251Z" stroke="#6BDAF5" stroke-width="12"/>
</g>
<g style="mix-blend-mode:lighten">
<path d="M884.755 414.607C914.572 421.577 925.823 458.094 905.096 480.632L652.57 755.229C631.669 777.956 593.989 769.436 584.898 739.927L474.134 380.406C465.042 350.896 491.396 322.654 521.465 329.683L884.755 414.607Z" fill="#FF7777"/>
</g>
<g style="mix-blend-mode:lighten">
<rect width="563.578" height="298.756" rx="149.378" transform="matrix(0.675983 0.736917 -0.736953 0.675943 916.031 293)" fill="#118AA8"/>
</g>
<g style="mix-blend-mode:lighten">
<path d="M591.293 69.5206C621.899 72.9031 637.364 108.151 619.129 132.966L172.803 740.337C154.569 765.15 116.314 760.92 103.943 732.723L-198.866 42.5597C-211.237 14.3629 -188.446 -16.6543 -157.842 -13.272L591.293 69.5206Z" fill="#118AA8"/>
</g>
<g style="mix-blend-mode:lighten">
<circle cx="452" cy="369" r="172" transform="rotate(90 452 369)" fill="#00C4F5"/>
</g>
<g style="mix-blend-mode:lighten">
<circle cx="356" cy="15.9971" r="151" transform="rotate(90 356 15.9971)" fill="#FF7777"/>
</g>
<g style="mix-blend-mode:lighten">
<rect x="-5.98857" y="2.15406" width="764.307" height="336.23" rx="168.115" transform="matrix(-0.426074 0.904688 -0.904719 -0.426009 875.944 753.702)" stroke="#00C4F5" stroke-width="9"/>
</g>
<g style="mix-blend-mode:lighten">
<path d="M944.786 821.596C978.235 821.727 996.76 860.412 975.891 886.552L810.103 1094.22C791.695 1117.27 755.509 1113.15 742.765 1086.53L642.822 877.831C630.078 851.219 649.549 820.441 679.055 820.556L944.786 821.596Z" fill="#00C4F5"/>
</g>
<g style="mix-blend-mode:lighten">
<path d="M460.681 667.413C472.471 673.817 471.618 691.016 459.251 696.221L88.1234 852.406C77.2615 856.977 65.3527 848.636 65.9368 836.866L83.2262 488.514C83.8103 476.744 96.4867 469.622 106.843 475.246L460.681 667.413Z" fill="#6BDAF5"/>
</g>
<g style="mix-blend-mode:lighten">
<rect width="725.697" height="401.279" rx="200.64" transform="matrix(0.293394 0.955992 -0.956006 0.293346 1592.72 -486.493)" fill="#118AA8"/>
</g>
<g style="mix-blend-mode:lighten">
<path d="M2059.12 600.552C1967.24 600.552 1892.75 526.069 1892.75 434.192C1892.75 342.315 1967.24 267.832 2059.12 267.832C2151.01 267.832 2225.5 342.315 2225.5 434.192C2225.5 526.069 2151.01 600.552 2059.12 600.552Z" stroke="#00C4F5" stroke-width="17"/>
</g>
<g style="mix-blend-mode:lighten">
<path d="M1364.62 12.7243C1394.8 3.50687 1423.27 31.2302 1414.86 61.6434L1343.36 320.098C1335.25 349.41 1298.69 359.308 1276.9 338.09L1091.92 157.967C1070.13 136.749 1079.06 99.9392 1108.15 91.0554L1364.62 12.7243Z" fill="#FF7777"/>
</g>
<g style="mix-blend-mode:lighten">
<path d="M2329.75 1040.43C2350.77 1062.93 2339.56 1099.75 2309.56 1106.71L1628.15 1264.81C1598.16 1271.77 1571.88 1243.65 1580.85 1214.2L1784.62 545.08C1793.59 515.624 1831.08 506.923 1852.11 529.418L2329.75 1040.43Z" fill="#00C4F5"/>
</g>
<g style="mix-blend-mode:lighten">
<rect width="249.372" height="243.07" rx="121.535" transform="matrix(0.835616 0.549314 -0.549254 0.835655 1801.89 235.55)" fill="#FF7777"/>
</g>
<g style="mix-blend-mode:lighten">
<rect width="762.454" height="357.946" rx="178.973" transform="matrix(0.725041 -0.688706 0.68877 0.72498 947.658 1055.3)" fill="#FF7777"/>
</g>
<g style="mix-blend-mode:lighten">
<path d="M1493.97 201.528C1499.59 197.366 1507.47 201.915 1506.68 208.865L1495.01 311.02C1494.35 316.743 1488.05 319.921 1483.06 317.04L1412.09 276.069C1407.1 273.189 1406.7 266.139 1411.33 262.711L1493.97 201.528Z" fill="#00C4F5"/>
<path d="M1631.54 268.995C1637.16 264.833 1645.04 269.382 1644.25 276.332L1632.58 378.487C1631.92 384.21 1625.62 387.387 1620.63 384.507L1549.66 343.535C1544.67 340.655 1544.27 333.606 1548.9 330.178L1631.54 268.995Z" fill="#00C4F5"/>
<path d="M1513.03 327.653C1518.65 323.491 1526.53 328.04 1525.74 334.99L1514.07 437.145C1513.41 442.868 1507.11 446.046 1502.12 443.165L1431.15 402.194C1426.16 399.314 1425.76 392.264 1430.39 388.836L1513.03 327.653Z" fill="#00C4F5"/>
<path d="M1674.03 369.653C1679.65 365.491 1687.53 370.04 1686.74 376.99L1675.07 479.145C1674.41 484.868 1668.11 488.046 1663.12 485.165L1592.15 444.194C1587.16 441.314 1586.76 434.264 1591.39 430.836L1674.03 369.653Z" fill="#00C4F5"/>
<path d="M1603.37 136.997C1608.99 132.835 1616.88 137.384 1616.08 144.334L1604.41 246.489C1603.76 252.212 1597.45 255.389 1592.46 252.509L1521.49 211.537C1516.5 208.657 1516.1 201.608 1520.73 198.18L1603.37 136.997Z" fill="#00C4F5"/>
</g>
<g style="mix-blend-mode:lighten">
<path d="M1466.1 626.712C1486.81 649.508 1475.07 686.166 1444.97 692.695L1018.07 785.31C987.978 791.838 962.104 763.344 971.495 734.02L1104.71 318.025C1114.11 288.7 1151.72 280.538 1172.42 303.332L1466.1 626.712Z" fill="#6BDAF5"/>
</g>
<g style="mix-blend-mode:lighten">
<path d="M2606.3 69.5206C2636.9 72.9031 2652.37 108.151 2634.14 132.966L2187.81 740.337C2169.58 765.15 2131.32 760.92 2118.95 732.723L1816.14 42.5597C1803.77 14.3629 1826.56 -16.6543 1857.16 -13.272L2606.3 69.5206Z" fill="#118AA8"/>
</g>
<g style="mix-blend-mode:lighten">
<rect x="-5.98857" y="2.15406" width="764.307" height="336.23" rx="168.115" transform="matrix(-0.426074 0.904688 -0.904719 -0.426009 875.944 -516.433)" stroke="#00C4F5" stroke-width="9"/>
</g>
</g>
<g style="mix-blend-mode:multiply">
<rect width="1960" height="746" fill="#ECF1F4"/>
</g>
</g>
<defs>
<clipPath id="clip0">
<rect width="1960" height="746" fill="white"/>
</clipPath>
</defs>
</svg>
